<svg xmlns="http://www.w3.org/2000/svg"  viewBox="0 0 40 40" width="40px" height="40px" baseProfile="basic"><linearGradient id="W-pJF-BraVEXPRneyshq2a" x1="8.32" x2="16.937" y1="28.647" y2="23.796" gradientUnits="userSpaceOnUse"><stop offset="0" stop-color="#b2b2b2"/><stop offset="1"/></linearGradient><polygon fill="url(#W-pJF-BraVEXPRneyshq2a)" points="14.019,22.989 4,28.851 4,33.529 13.672,27.877"/><linearGradient id="W-pJF-BraVEXPRneyshq2b" x1="9.733" x2="6.541" y1="19.377" y2="5.717" gradientUnits="userSpaceOnUse"><stop offset="0" stop-color="#b2b2b2"/><stop offset="1"/></linearGradient><path fill="url(#W-pJF-BraVEXPRneyshq2b)" d="M9.112,9.731l-4.136,2.082	c0.01,2.908,0.889,10.549,8.698,16.05l0.349-4.918C10.441,19.838,8.25,14.279,9.112,9.731z"/><linearGradient id="W-pJF-BraVEXPRneyshq2c" x1="15.898" x2="28.217" y1="15.397" y2="21.461" gradientUnits="userSpaceOnUse"><stop offset="0" stop-color="#b2b2b2"/><stop offset="1"/></linearGradient><path fill="url(#W-pJF-BraVEXPRneyshq2c)" d="M23.697,17.112L9.112,9.731l-4.136,2.082	C9,14,20.676,20.074,20.676,20.074L23.697,17.112z"/><path fill="#b2b2b2" d="M33.97,13.9L37,10l-4.714-0.268C30.909,8.065,28.826,7,26.5,7c-4.126,0-7.483,3.349-7.499,7.472	l-0.001,0c0.053,1.879,0.628,3.549,1.681,5.624l3-2.968C23.138,16.17,22.995,15.298,23,14.5c0-1.93,1.57-3.5,3.5-3.5	c5.1,0,3.252,7.227,2.938,8.642c-1.053,4.073-3.329,7.477-6.463,9.503c-2.811,1.816-6.669,2.517-10.929,2.104	c-1.705,0.991-3.971,2.299-5.399,3.072c3.006,0.743,6.045,1.05,8.217,1.05c4.581,0,7.955-1.362,10.282-2.866	C32.714,27.615,34.334,18.463,33.97,13.9z"/></svg>